<svg xmlns="http://www.w3.org/2000/svg" viewBox="0 0 100 100" width="100" height="100">
  <circle cx="50" cy="50" r="48" fill="#0d6b3a" stroke="#ffffff" stroke-width="2"/>
  <rect x="35" y="15" width="6" height="70" rx="2" fill="#ffffff"/>
  <rect x="59" y="15" width="6" height="70" rx="2" fill="#ffffff"/>
  <rect x="35" y="25" width="30" height="5" rx="1" fill="#ffffff"/>
  <rect x="35" y="38" width="30" height="5" rx="1" fill="#ffffff"/>
  <rect x="35" y="51" width="30" height="5" rx="1" fill="#ffffff"/>
  <rect x="35" y="64" width="30" height="5" rx="1" fill="#ffffff"/>
  <path d="M 72 20 A 8 8 0 1 0 72 36 A 6 6 0 1 1 72 20" fill="#ffffff"/>
  <polygon points="82,28 83.5,32 88,32 84.5,34.5 86,38.5 82,36 78,38.5 79.5,34.5 76,32 80.5,32" fill="#ffffff"/>
</svg>
